<svg version="1.1" id="Layer_1" xmlns="http://www.w3.org/2000/svg" xmlns:xlink="http://www.w3.org/1999/xlink" x="0px" y="0px"
     width="100%" viewBox="0 0 2048 2048" enable-background="new 0 0 2048 2048" xml:space="preserve">

<path fill="#0B142B" opacity="1.000000" stroke="none" 
d="
M2049.000000,1069.000000 
C2049.000000,1069.750000 2049.000000,1070.500000 2048.634277,1071.668579 
C2045.425781,1073.807007 2044.549072,1075.711426 2047.758057,1078.280884 
C2047.493896,1079.049072 2047.185547,1079.531616 2046.624023,1080.268066 
C2045.158081,1082.593750 2043.945068,1084.665283 2042.546509,1087.053711 
C2043.658813,1088.340210 2045.239014,1090.167725 2046.834106,1092.275879 
C2046.593872,1093.027954 2046.338623,1093.499390 2045.681396,1094.060303 
C2044.853027,1095.803955 2044.183472,1097.438843 2044.048340,1099.116699 
C2043.716309,1103.236328 2043.630249,1107.375610 2043.445435,1111.507080 
C2042.955444,1111.501221 2042.465332,1111.495361 2041.975342,1111.489502 
C2041.975342,1111.489502 2041.975342,1111.489502 ...
"/>
</svg>